# xmcd CD database file
#
# Track frame offsets:
#	150
#	10280
#	22965
#	36230
#	48257
#	57070
#	69497
#	82057
#	93932
#	105805
#	116472
#	129612
#	141650
#	158787
#	169545
#	181515
#	191935
#	203410
#	217405
#	227577
#	241192
#	255477
#	268925
#	278360
#	294672
#
# Disc length: 4095 seconds
#
# Revision: 2
# Processed by: cddbd v1.5.2PL0 Copyright (c) Steve Scherf et al.
# Submitted via: CDex 1.51
#
DISCID=590ffd19
DTITLE=Various Artist - Harp Blues
DYEAR=1999
DGENRE=Blues
TTITLE0=Wine, Women, Whiskey - Papa Lightning
TTITLE1=Walking By Myself - Jimmy Rogers w Big Walter Horton
TTITLE2=Chicago Breakdown - Doctor Ross
TTITLE3=Ninety Nine - Sonny Boy Williamson
TTITLE4=Steady - Jerry McCain
TTITLE5=Up The River - Cousin Leroy
TTITLE6=Sweet Home Chicago - Little Junior Parker
TTITLE7=Sleeping In The Ground - Sammy Meyers
TTITLE8=Monkey Doin' Woman - Shy Guy Douglas
TTITLE9=Found Love - Jimmy Reed
TTITLE10=Roller Coaster - Little Walter and His Jukes
TTITLE11=Ride With Your Daddy Tonight - Frank Frost
TTITLE12=All Night Long (Rock Me Baby) - Junior Wells
TTITLE13=A Fool No More - Eddie Hope and Manish Boys
TTITLE14=Howlin' Wolf Boogie - Howlin' Wolf
TTITLE15=Need My Baby - Shakey Horton
TTITLE16=Little Girl - Little Willie Foster
TTITLE17=Bring Another Half Pint - Sonny Boy Williamson
TTITLE18=I Ain't Got You - Billy Boy
TTITLE19=Easy (I Almost Lost My Mind) - Jimmy and Walter
TTITLE20=Western Union Man - Chicago Sunny Boy (Joe Hill Louis)
TTITLE21=What's This I Hear - Shy Guy Douglas
TTITLE22=Rocket 88 - James Cotton
TTITLE23=West Helena Blues - George Smith
TTITLE24=Boogie Twist - Snooky Pryor
EXTD=YEAR: 1999
EXTT0=
EXTT1=
EXTT2=
EXTT3=
EXTT4=
EXTT5=
EXTT6=
EXTT7=
EXTT8=
EXTT9=
EXTT10=
EXTT11=
EXTT12=
EXTT13=
EXTT14=
EXTT15=
EXTT16=
EXTT17=
EXTT18=
EXTT19=
EXTT20=
EXTT21=
EXTT22=
EXTT23=
EXTT24=
PLAYORDER=
